<?xml version="1.0" standalone="no"?>
<!DOCTYPE svg PUBLIC "-//W3C//DTD SVG 1.1//EN" "http://www.w3.org/Graphics/SVG/1.1/DTD/svg11.dtd" >
<svg xmlns="http://www.w3.org/2000/svg">
<metadata>Generated by IcoMoon</metadata>
<defs>
<font id="icomoon" horiz-adv-x="1024">
<font-face units-per-em="1024" ascent="960" descent="-64" />
<missing-glyph horiz-adv-x="1024" />
<glyph unicode="&#x20;" horiz-adv-x="512" d="" />
<glyph unicode="&#xe800;" glyph-name="ico-left-bar" horiz-adv-x="1161" d="M1161.237 722.474h-728.412l-142.515-131.959h-290.309v-290.309l153.072-364.206h934.268zM1097.897 801.649h-665.072l-142.515-142.515h-211.134v300.866h353.649l147.794-89.732h517.278z" />
<glyph unicode="&#xe801;" glyph-name="ico-right-bar" d="M1002.667 601.6c-21.333 64-51.2 123.733-93.867 174.933-21.333 25.6-42.667 46.933-68.267 68.267-51.2 42.667-110.933 72.533-174.933 93.867-51.2 12.8-102.4 21.333-153.6 21.333s-102.4-8.533-153.6-21.333c-64-21.333-119.467-55.467-170.667-93.867-25.6-21.333-46.933-42.667-68.267-68.267-42.667-55.467-76.8-110.933-98.133-174.933-12.8-51.2-21.333-102.4-21.333-153.6s8.533-102.4 21.333-153.6c21.333-64 51.2-123.733 93.867-174.933 21.333-25.6 42.667-46.933 68.267-68.267 51.2-42.667 110.933-72.533 174.933-93.867 51.2-12.8 102.4-21.333 153.6-21.333s102.4 8.533 153.6 21.333c64 21.333 123.733 51.2 174.933 93.867 25.6 21.333 46.933 42.667 68.267 68.267 42.667 51.2 72.533 110.933 93.867 174.933 17.067 46.933 21.333 98.133 21.333 153.6 0 51.2-8.533 102.4-21.333 153.6zM512 836.267c106.667 0 192-85.333 192-192s-85.333-196.267-192-196.267-192 85.333-192 196.267c0 106.667 85.333 192 192 192zM512 21.333c-162.133 0-302.933 89.6-375.467 226.133 93.867 102.4 226.133 166.4 375.467 166.4s281.6-64 375.467-166.4c-72.533-136.533-213.333-226.133-375.467-226.133z" />
<glyph unicode="&#xe803;" glyph-name="sort_more" horiz-adv-x="777" d="M553.891 820.364c4.655 0 9.309-4.655 13.964-4.655s4.655 0 9.309 0 4.655 4.655 9.309 4.655l41.891 37.236c0-9.309 0-18.618 0-27.927v-190.836h-74.473v-60.509h214.109v60.509h-60.509v321.164h-65.164l-116.364-97.745 23.273-32.582c0-4.655 0-9.309 4.655-9.309zM768 243.2c-4.655 13.964-13.964 27.927-27.927 41.891-9.309 9.309-23.273 18.618-41.891 27.927-13.964 4.655-32.582 9.309-55.855 9.309-18.618 0-37.236-4.655-55.855-9.309s-32.582-13.964-41.891-27.927c-13.964-9.309-18.618-23.273-27.927-41.891-4.655-13.964-9.309-32.582-9.309-46.545 0-18.618 4.655-37.236 9.309-46.545 4.655-13.964 13.964-23.273 23.273-32.582s23.273-13.964 32.582-18.618c13.964-4.655 23.273-4.655 37.236-4.655 9.309 0 18.618 0 27.927 4.655 9.309 0 18.618 4.655 23.273 9.309 0-4.655-4.655-4.655-4.655-9.309s-4.655-4.655-4.655-9.309l-111.709-153.6h74.473c9.309 0 18.618 0 23.273 4.655 9.309 4.655 13.964 9.309 18.618 13.964l83.782 116.364c4.655 9.309 13.964 18.618 18.618 27.927s9.309 18.618 13.964 27.927c4.655 9.309 4.655 18.618 9.309 32.582 0 9.309 4.655 23.273 4.655 37.236-9.309 13.964-13.964 32.582-18.618 46.545zM684.218 159.418c-9.309-9.309-23.273-13.964-41.891-13.964-37.236 0-51.2 18.618-51.2 55.855 0 9.309 0 13.964 4.655 23.273 4.655 4.655 4.655 13.964 9.309 18.618s9.309 9.309 13.964 13.964c4.655 4.655 13.964 4.655 23.273 4.655s13.964 0 23.273-4.655c4.655-4.655 13.964-4.655 18.618-9.309s9.309-9.309 9.309-18.618 4.655-18.618 4.655-27.927c0-18.618-4.655-32.582-13.964-41.891zM176.873 960h-97.745v-768h-79.127l65.164-130.327 60.509-125.673 65.164 125.673 65.164 130.327h-79.127z" />
<glyph unicode="&#xe804;" glyph-name="sort_less" horiz-adv-x="773" d="M702.836 313.018h-65.164l-116.364-97.745 23.273-32.582c0 0 4.655-4.655 9.309-4.655s9.309-4.655 13.964-4.655c4.655 0 4.655 0 9.309 0s4.655 4.655 9.309 4.655l41.891 37.236c0-9.309 0-18.618 0-27.927v-190.836h-74.473v-60.509h214.109v55.855h-60.509v321.164zM763.345 885.527c-4.655 13.964-13.964 27.927-27.927 41.891-9.309 9.309-23.273 18.618-41.891 27.927-9.309 0-27.927 4.655-51.2 4.655-18.618 0-37.236-4.655-55.855-9.309-13.964-4.655-27.927-13.964-41.891-27.927-13.964-9.309-18.618-23.273-27.927-41.891-4.655-13.964-4.655-27.927-4.655-46.545s4.655-32.582 9.309-46.545c4.655-13.964 13.964-23.273 23.273-32.582s23.273-13.964 32.582-18.618c13.964-9.309 23.273-9.309 37.236-9.309 9.309 0 18.618 0 27.927 4.655 9.309 0 18.618 4.655 23.273 9.309 0-4.655-4.655-4.655-4.655-9.309s-4.655-4.655-4.655-9.309l-121.018-144.291h74.473c9.309 0 18.618 0 23.273 4.655 9.309 4.655 13.964 9.309 18.618 13.964l79.127 116.364c9.309 9.309 13.964 13.964 18.618 23.273s9.309 18.618 13.964 27.927c4.655 9.309 4.655 18.618 9.309 32.582 0 9.309 4.655 23.273 4.655 37.236-4.655 18.618-4.655 32.582-13.964 51.2zM684.218 797.091c-9.309-9.309-23.273-13.964-37.236-13.964-37.236 0-51.2 18.618-51.2 55.855 0 9.309 0 13.964 4.655 23.273 0 4.655 4.655 13.964 9.309 18.618s9.309 9.309 13.964 13.964c4.655 4.655 13.964 4.655 23.273 4.655s13.964 0 23.273-4.655c4.655-4.655 13.964-4.655 18.618-9.309s9.309-9.309 9.309-18.618c-4.655-9.309 0-18.618 0-27.927 0-13.964-4.655-27.927-13.964-41.891zM172.218 955.345h-93.091v-763.345h-79.127l65.164-130.327 60.509-125.673 65.164 125.673 65.164 130.327h-83.782z" />
<glyph unicode="&#xe805;" glyph-name="heart" d="M726.109 866.909c79.127 0 144.291-41.891 181.527-116.364 41.891-88.436 23.273-200.145-51.2-297.891-102.4-130.327-256-297.891-344.436-386.327-88.436 88.436-242.036 251.345-344.436 386.327-74.473 97.745-93.091 209.455-51.2 297.891 37.236 74.473 102.4 116.364 181.527 116.364 51.2 0 107.055-18.618 162.909-55.855l51.2-37.236 51.2 37.236c55.855 37.236 111.709 55.855 162.909 55.855zM726.109 960c-65.164 0-139.636-23.273-214.109-74.473-74.473 51.2-148.945 74.473-214.109 74.473-246.691 0-409.6-297.891-204.8-563.2 153.6-200.145 418.909-460.8 418.909-460.8s265.309 260.655 418.909 460.8c204.8 265.309 41.891 563.2-204.8 563.2v0z" />
<glyph unicode="&#xe806;" glyph-name="public" d="M251.345 159.418c0-69.407-56.266-125.673-125.673-125.673s-125.673 56.266-125.673 125.673c0 69.407 56.266 125.673 125.673 125.673s125.673-56.266 125.673-125.673zM637.673 834.327c0-69.407-56.266-125.673-125.673-125.673s-125.673 56.266-125.673 125.673c0 69.407 56.266 125.673 125.673 125.673s125.673-56.266 125.673-125.673zM1024 159.418c0-69.407-56.266-125.673-125.673-125.673s-125.673 56.266-125.673 125.673c0 69.407 56.266 125.673 125.673 125.673s125.673-56.266 125.673-125.673zM870.4 387.491c0-4.655 0-9.309 0-13.964 9.309 0 23.273 4.655 32.582 4.655 23.273 0 41.891-4.655 60.509-9.309 0 4.655 0 13.964 0 18.618 0 46.545-9.309 93.091-18.618 134.982-9.309 27.927-18.618 55.855-32.582 79.127s-27.927 51.2-46.545 69.818c-13.964 18.618-27.927 32.582-46.545 46.545-13.964 9.309-23.273 18.618-37.236 27.927-18.618 13.964-37.236 27.927-55.855 37.236 0 0-4.655 0-4.655 4.655-9.309-32.582-23.273-60.509-41.891-83.782 111.709-60.509 190.836-181.527 190.836-316.509zM698.182 80.291c-55.855-32.582-116.364-51.2-186.182-51.2s-130.327 18.618-186.182 51.2c-9.309-27.927-27.927-55.855-51.2-79.127 69.818-41.891 148.945-65.164 237.382-65.164 79.127 0 148.945 18.618 214.109 55.855 9.309 4.655 13.964 9.309 23.273 13.964-23.273 18.618-37.236 46.545-51.2 74.473zM153.6 373.527c0 4.655 0 9.309 0 13.964 0 134.982 74.473 256 186.182 316.509-18.618 23.273-32.582 51.2-37.236 79.127-13.964-4.655-27.927-13.964-41.891-23.273-23.273-13.964-46.545-32.582-65.164-55.855-83.782-83.782-130.327-195.491-130.327-316.509 0-4.655 0-13.964 0-18.618 18.618 4.655 41.891 9.309 60.509 9.309 9.309 0 18.618 0 27.927-4.655z" />
<glyph unicode="&#xe807;" glyph-name="filtr" d="M121.018 960h256v-256h-256v256zM633.018 592.291h256v-256h-256v256zM256 192h256v-256h-256v256zM0 876.218h74.473v-93.091h-74.473v93.091zM423.564 876.218h600.436v-93.091h-600.436v93.091zM0 513.164h586.473v-93.091h-586.473v93.091zM935.564 513.164h88.436v-93.091h-88.436v93.091zM558.545 112.873h465.455v-93.091h-465.455v93.091zM0 112.873h209.455v-93.091h-209.455v93.091z" />
<glyph unicode="&#xe808;" glyph-name="desctop" d="M930.909 866.909v-581.818h-837.818v581.818h837.818zM1024 960h-1024v-768h1024v768zM1024-64l-125.673 186.182h-772.655l-125.673-186.182z" />
<glyph unicode="&#xe809;" glyph-name="list" d="M0 960h256v-256h-256v256zM879.709 960h-493.382v-256h637.673v256zM0 573.673h256v-256h-256v256zM879.709 573.673h-493.382v-256h637.673v256zM0 192h256v-256h-256v256zM879.709 192h-493.382v-256h637.673v256z" />
<glyph unicode="&#xe80a;" glyph-name="grid" horiz-adv-x="1029" d="M0 960h257.169v-257.169h-257.169v257.169zM771.507 960h257.169v-257.169h-257.169v257.169zM383.416 960h257.169v-257.169h-257.169v257.169zM0 576.584h257.169v-257.169h-257.169v257.169zM771.507 576.584h257.169v-257.169h-257.169v257.169zM383.416 576.584h257.169v-257.169h-257.169v257.169zM0 193.169h257.169v-257.169h-257.169v257.169zM771.507 193.169h257.169v-257.169h-257.169v257.169zM383.416 193.169h257.169v-257.169h-257.169v257.169z" />
<glyph unicode="&#xe80b;" glyph-name="people" d="M977.455 834.327c0-69.407-56.266-125.673-125.673-125.673s-125.673 56.266-125.673 125.673c0 69.407 56.266 125.673 125.673 125.673s125.673-56.266 125.673-125.673zM297.891 834.327c0-69.407-56.266-125.673-125.673-125.673s-125.673 56.266-125.673 125.673c0 69.407 56.266 125.673 125.673 125.673s125.673-56.266 125.673-125.673zM707.491 587.636c0-107.967-87.524-195.491-195.491-195.491s-195.491 87.524-195.491 195.491c0 107.967 87.524 195.491 195.491 195.491s195.491-87.524 195.491-195.491zM512 294.4c-93.091 0-176.873 46.545-232.727 116.364l-88.436-32.582 65.164-442.182h521.309l55.855 442.182-88.436 37.236c-51.2-74.473-139.636-121.018-232.727-121.018zM237.382 494.545c-9.309 27.927-13.964 60.509-13.964 93.091 0 9.309 0 23.273 0 32.582-13.964-4.655-32.582-9.309-51.2-9.309-69.818 0-130.327 32.582-172.218 83.782v-372.364l125.673-144.291-27.927 186.182-4.655 74.473 69.818 27.927 74.473 27.927zM851.782 610.909c-18.618 0-37.236 4.655-51.2 9.309 0-9.309 0-23.273 0-32.582 0-32.582-4.655-60.509-13.964-88.436l79.127-32.582 65.164-27.927-9.309-69.818-23.273-176.873 121.018 134.982v367.709c-37.236-51.2-97.745-83.782-167.564-83.782z" />
<glyph unicode="&#xe80c;" glyph-name="y" d="M0 5.818l51.2-69.818 460.8 349.091 460.8-349.091 51.2 69.818-470.109 358.4v595.782h-88.436v-595.782z" />
<glyph unicode="&#xe80d;" glyph-name="delta" d="M768 448l-256 512-512-1024h1024l-256 512zM512 29.091h-363.055l190.836 377.018 148.945 302.545 339.782-679.564h-316.509z" />
<glyph unicode="&#xe900;" glyph-name="private" horiz-adv-x="873" d="M623.304 376.765l-4.452-89.043c102.4-26.713 169.183-75.687 169.183-120.209 0-66.783-151.374-146.922-351.722-146.922s-351.722 75.687-351.722 146.922c0 44.522 66.783 93.496 169.183 120.209l-4.452 89.043c-151.374-35.617-249.322-115.757-249.322-209.252 0-133.565 186.991-231.513 436.313-231.513s436.313 97.948 436.313 231.513c0 93.496-97.948 173.635-249.322 209.252zM529.809 857.6c0-56.554-45.846-102.4-102.4-102.4s-102.4 45.846-102.4 102.4c0 56.554 45.846 102.4 102.4 102.4s102.4-45.846 102.4-102.4zM329.461 91.826h191.443l17.809 356.174h66.783v302.748l-17.809 8.904c-35.617-57.878-93.496-93.496-164.73-93.496-71.235-4.452-124.661 35.617-155.826 93.496l-13.357-8.904v-302.748h53.426l22.261-356.174z" />
<glyph unicode="&#xe901;" glyph-name="ikonakategoriiudostpnionych-01" horiz-adv-x="1317" d="M102.4-64h936.229l277.943 512h-921.6zM321.829 594.286h775.314v292.571h-585.143v73.143h-512v-1002.057z" />
<glyph unicode="&#xe902;" glyph-name="ikona_edytuj_kategorie-01" d="M83.2 192l-83.2-256 256 83.2zM384 70.4l640 640-249.6 249.6-640-640 249.6-249.6zM768 793.6l89.6-89.6-448-448-96 83.2 454.4 454.4z" />
<glyph unicode="&#xe903;" glyph-name="ikonka_kategorii" d="M1024 587.636v232.727h-512v139.636h-256l-125.673-139.636h-130.327v-232.727zM0 494.545h1024v-558.545h-1024v558.545z" />
<glyph unicode="&#xe904;" glyph-name="infinity_square" d="M763.345 708.655c-69.818 0-130.327-27.927-181.527-74.473l-9.309-9.309 4.655-9.309c9.309-13.964 18.618-32.582 27.927-46.545l9.309-23.273 18.618 18.618c32.582 37.236 79.127 60.509 130.327 60.509 97.745 0 172.218-79.127 172.218-172.218 0-102.4-88.436-186.182-200.145-172.218-107.055 13.964-153.6 107.055-200.145 204.8-27.927 55.855-60.509 121.018-111.709 167.564-37.236 27.927-79.127 46.545-125.673 55.855-9.309 0-18.618 0-27.927 0h-4.655c-148.945 0-265.309-116.364-265.309-260.655s116.364-260.655 260.655-260.655c65.164 0 130.327 27.927 181.527 74.473l9.309 9.309-4.655 9.309c-9.309 13.964-18.618 32.582-23.273 51.2l-9.309 23.273-18.618-18.618c-32.582-37.236-79.127-60.509-130.327-60.509-97.745 0-172.218 79.127-172.218 172.218s79.127 172.218 172.218 172.218c41.891 0 83.782-13.964 116.364-41.891l9.309-9.309c51.2-55.855 88.436-125.673 116.364-186.182 4.655-9.309 9.309-23.273 13.964-32.582l13.964-27.927c46.545-83.782 134.982-139.636 232.727-139.636 144.291 0 260.655 116.364 260.655 260.655s-121.018 265.309-265.309 265.309z" />
<glyph unicode="&#xe905;" glyph-name="cut" horiz-adv-x="1001" d="M209.326 354.652c-73.547 0-135.779-33.945-169.724-90.519-22.63-33.945-33.945-73.547-33.945-113.149s11.315-84.862 33.945-113.149c39.602-56.575 101.834-90.519 169.724-90.519 56.575 0 107.492 22.63 147.094 62.232s62.232 90.519 62.232 147.094c0 22.63-5.657 45.26-11.315 67.89s-22.63 45.26-33.945 62.232c-5.657 11.315-16.972 16.972-28.287 28.287-45.26 16.972-90.519 39.602-135.779 39.602zM209.326 49.149c-56.575 0-96.177 45.26-96.177 96.177s45.26 96.177 96.177 96.177c16.972 0 39.602-5.657 50.917-16.972 28.287-16.972 45.26-45.26 45.26-84.862 0-11.315 0-22.63-5.657-28.287-11.315-33.945-50.917-62.232-90.519-62.232zM1001.37 818.564l-79.204 79.204-367.735-373.392-152.751 152.751c-11.315-22.63-28.287-50.917-50.917-67.89 22.63 16.972 39.602 45.26 50.917 67.89s11.315 45.26 11.315 73.547-16.972 96.177-45.26 135.779c-39.602 45.26-96.177 73.547-158.409 73.547-73.547 0-135.779-33.945-169.724-90.519-28.287-33.945-39.602-73.547-39.602-118.807s11.315-84.862 33.945-113.149c39.602-56.575 101.834-90.519 169.724-90.519 50.917 0 90.519 16.972 130.122 45.26l147.094-147.094-141.436-141.436c11.315-5.657 16.972-16.972 28.287-28.287 16.972-16.972 28.287-39.602 33.945-62.232l152.751 152.751 367.735-367.735 79.204 79.204-367.735 367.735 367.735 373.392zM260.243 671.47c-16.972-11.315-33.945-16.972-50.917-16.972-56.575 0-96.177 45.26-96.177 96.177s45.26 96.177 96.177 96.177c45.26 0 84.862-33.945 96.177-73.547 0-5.657 5.657-16.972 5.657-22.63-5.657-33.945-22.63-62.232-50.917-79.204zM548.773 405.569c-22.63 0-39.602 16.972-39.602 39.602s16.972 39.602 39.602 39.602c22.63 0 39.602-16.972 39.602-39.602 5.657-22.63-16.972-39.602-39.602-39.602z" />
<glyph unicode="&#xe906;" glyph-name="glass" horiz-adv-x="1459" d="M1365.333 475.527c0 5.505-5.505 5.505 0 0l-484.473 484.473-71.57-71.57 319.312-319.312c-82.581 0-159.656-33.032-214.71-93.591-11.011-11.011-27.527-27.527-38.538-44.043-93.591 49.548-203.699 44.043-297.29-5.505-11.011 22.022-22.022 38.538-38.538 49.548-55.054 60.559-132.129 93.591-214.71 93.591l319.312 319.312-71.57 71.57-473.462-473.462v-5.505c0 0-5.505-5.505-5.505-5.505-126.624-126.624-126.624-324.817 0-451.441 60.559-60.559 137.634-93.591 225.72-93.591 44.043 0 82.581 5.505 121.118 22.022 11.011 5.505 27.527 11.011 44.043 22.022 11.011 5.505 22.022 11.011 27.527 22.022 11.011 11.011 22.022 16.516 33.032 27.527 49.548 49.548 82.581 110.108 88.086 181.677 60.559 33.032 132.129 33.032 192.688 5.505 11.011-71.57 38.538-137.634 88.086-187.183 0 0 5.505-5.505 5.505-5.505v0c11.011-11.011 22.022-22.022 33.032-27.527s16.516-11.011 27.527-16.516c16.516-5.505 27.527-16.516 44.043-22.022 38.538-11.011 71.57-22.022 110.108-22.022 82.581 0 165.161 33.032 225.72 93.591 126.624 126.624 126.624 330.323 5.505 451.441zM1359.828 255.312c0-60.559-22.022-115.613-66.065-154.151-66.065-66.065-170.667-82.581-253.247-38.538-5.505 0-11.011 5.505-11.011 5.505-16.516 11.011-33.032 22.022-44.043 33.032-5.505 5.505-11.011 11.011-16.516 16.516-33.032 44.043-49.548 93.591-49.548 148.645 0 11.011 0 22.022 5.505 33.032 5.505 22.022 16.516 49.548 27.527 71.57 11.011 16.516 22.022 33.032 33.032 44.043 44.043 44.043 93.591 66.065 154.151 66.065s115.613-22.022 154.151-66.065c44.043-49.548 66.065-104.602 66.065-159.656zM836.817 343.398c0-5.505-5.505-16.516-5.505-27.527-66.065 22.022-137.634 22.022-198.194 0 0 5.505-5.505 16.516-5.505 22.022 60.559 38.538 143.14 38.538 209.204 5.505zM534.022 255.312c0-49.548-16.516-93.591-44.043-132.129v0c-5.505-11.011-16.516-16.516-22.022-22.022-11.011-11.011-22.022-22.022-38.538-27.527-5.505 0-5.505-5.505-11.011-5.505-33.032-16.516-71.57-27.527-104.602-27.527-60.559 0-115.613 22.022-154.151 66.065-38.538 38.538-66.065 93.591-66.065 154.151s22.022 115.613 66.065 154.151c44.043 44.043 93.591 66.065 154.151 66.065s115.613-33.032 159.656-71.57c11.011-11.011 27.527-27.527 38.538-49.548s22.022-49.548 27.527-71.57c-5.505-11.011-5.505-22.022-5.505-33.032zM319.312 403.957c-44.043 0-82.581-27.527-115.613-55.054-33.032-33.032-49.548-66.065-49.548-121.118h71.57c0 55.054 11.011 55.054 27.527 71.57s38.538 33.032 60.559 33.032c22.022 0 44.043-16.516 60.559-33.032s27.527-16.516 27.527-71.57h71.57c0 55.054-16.516 93.591-49.548 121.118-22.022 33.032-66.065 55.054-104.602 55.054zM1134.108 403.957c-44.043 0-82.581-27.527-115.613-55.054-33.032-33.032-49.548-66.065-49.548-121.118h77.075c0 55.054 11.011 55.054 27.527 71.57s38.538 33.032 60.559 33.032c22.022 0 44.043-16.516 60.559-33.032s27.527-16.516 27.527-71.57h71.57c0 55.054-16.516 93.591-49.548 121.118-22.022 33.032-66.065 55.054-110.108 55.054z" />
<glyph unicode="&#xe907;" glyph-name="folder-open" horiz-adv-x="1325" d="M108.424-94.118h939.671l277.082 542.118h-921.6zM319.247 568.471h825.224v240.941h-602.353v120.471h-542.118v-1005.929z" />
<glyph unicode="&#xe908;" glyph-name="save-link" horiz-adv-x="926" d="M462.979 99.404l277.787 375.83h-185.191v484.766h-185.191v-484.766h-185.191zM610.043 834.723v-114.383c119.83-54.468 206.979-179.745 206.979-321.362 0-196.085-157.957-354.043-354.043-354.043s-354.043 157.957-354.043 354.043c0 141.617 87.149 266.894 206.979 321.362v114.383c-185.191-59.915-315.915-234.213-315.915-435.745 0-256 206.979-462.979 462.979-462.979s462.979 206.979 462.979 462.979c0 201.532-130.723 375.83-315.915 435.745z" />
<glyph unicode="&#xe909;" glyph-name="share" d="M252.988 454.024c0-69.861-56.633-126.494-126.494-126.494s-126.494 56.633-126.494 126.494c0 69.861 56.633 126.494 126.494 126.494s126.494-56.633 126.494-126.494zM1024 833.506c0-69.861-56.633-126.494-126.494-126.494s-126.494 56.633-126.494 126.494c0 69.861 56.633 126.494 126.494 126.494s126.494-56.633 126.494-126.494zM1024 62.494c0-69.861-56.633-126.494-126.494-126.494s-126.494 56.633-126.494 126.494c0 69.861 56.633 126.494 126.494 126.494s126.494-56.633 126.494-126.494zM337.318 514.259l379.482 186.729c-18.071 24.094-30.118 54.212-42.165 84.329l-379.482-192.753c18.071-18.071 36.141-48.188 42.165-78.306zM722.824 201.035l-385.506 186.729c-6.024-30.118-24.094-60.235-42.165-84.329l385.506-192.753c6.024 36.141 24.094 66.259 42.165 90.353z" />
<glyph unicode="&#xe90a;" glyph-name="kafel-menu-left" horiz-adv-x="247" d="M252.988 833.506c0-69.861-56.633-126.494-126.494-126.494s-126.494 56.633-126.494 126.494c0 69.861 56.633 126.494 126.494 126.494s126.494-56.633 126.494-126.494zM252.988 62.494c0-69.861-56.633-126.494-126.494-126.494s-126.494 56.633-126.494 126.494c0 69.861 56.633 126.494 126.494 126.494s126.494-56.633 126.494-126.494zM252.988 448c0-69.861-56.633-126.494-126.494-126.494s-126.494 56.633-126.494 126.494c0 69.861 56.633 126.494 126.494 126.494s126.494-56.633 126.494-126.494z" />
<glyph unicode="&#xe90b;" glyph-name="pen" d="M85.333 186.311l-85.333-250.311 256 85.333zM381.156 72.533l642.844 637.156-250.311 250.311-637.156-642.844 244.622-244.622zM762.311 789.333l91.022-91.022-449.422-449.422-91.022 91.022 449.422 449.422z" />
<glyph unicode="&#xe90c;" d="M1024 448c0-282.77-229.23-512-512-512s-512 229.23-512 512c0 282.77 229.23 512 512 512s512-229.23 512-512z" />
<glyph unicode="&#xe90d;" d="M777.309 652.8l-60.509 60.509-204.8-204.8-204.8 204.8-60.509-60.509 204.8-204.8-204.8-204.8 60.509-60.509 204.8 204.8 204.8-204.8 60.509 60.509-204.8 204.8z" />
<glyph unicode="&#xe90e;" glyph-name="block" d="M512 960c-283.106 0-512-228.894-512-512s228.894-512 512-512c283.106 0 512 228.894 512 512s-228.894 512-512 512zM120.471 448c0 216.847 174.682 391.529 391.529 391.529 84.329 0 168.659-30.118 228.894-78.306l-548.141-548.141c-42.165 66.259-72.282 150.588-72.282 234.918zM512 56.471c-84.329 0-168.659 30.118-228.894 78.306l548.141 548.141c42.165-66.259 72.282-150.588 72.282-234.918 0-216.847-174.682-391.529-391.529-391.529z" />
<glyph unicode="&#xe90f;" glyph-name="myd" horiz-adv-x="1321" d="M1320.607 409.159v-296.607c0-91.807-84.745-176.552-169.49-176.552l-1115.807 7.062c-14.124 0-35.31 7.062-35.31 21.186v91.807c0 14.124 14.124 28.248 35.31 28.248l1087.559-7.062c14.124 7.062 35.31 21.186 35.31 35.31v91.807h-204.8c-84.745 0-155.366 70.621-169.49 155.366-7.062 7.062-7.062 21.186-7.062 42.372v218.924c0 49.434 7.062 105.931-7.062 141.241-7.062 21.186-35.31 56.497-63.559 63.559 0 0-7.062 0-7.062 0h-134.179c-7.062 0-14.124-7.062-14.124-14.124 0-120.055 0-247.172 0-367.228 0-14.124 0-28.248 0-42.372v-28.248c0-14.124-14.124-28.248-21.186-28.248h-120.055c-7.062 0-7.062 7.062-14.124 7.062-7.062 7.062-14.124 14.124-14.124 21.186v28.248c0 14.124 0 35.31 0 42.372 0 120.055 0 247.172 0 367.228 0 7.062 0 14.124-14.124 14.124h-49.434c0 0 0 0 0 0s-7.062 0-7.062 0h-70.621c0 0-7.062 0-7.062 0s0 0 0 0h-49.434c-7.062 0-14.124 0-21.186-7.062 0-120.055 0-247.172 0-367.228 0-28.248 0-98.869-21.186-98.869h-120.055c-7.062 0-21.186 14.124-21.186 21.186v501.407c0 42.372 35.31 77.683 70.621 84.745h169.49c0 0 0 0 0 0h204.8c0 0 7.062 0 7.062 0h296.607c84.745 0 155.366-70.621 169.49-155.366 7.062-7.062 7.062-21.186 7.062-42.372v-218.924c0-49.434-7.062-105.931 7.062-141.241 7.062-28.248 42.372-70.621 77.683-70.621h127.117c14.124 0 14.124 7.062 21.186 14.124 0 120.055 0 247.172 0 367.228 0 28.248 0 98.869 21.186 98.869h120.055c7.062 0 21.186-14.124 21.186-28.248v-374.29z" />
<glyph unicode="&#xe910;" glyph-name="Share2" horiz-adv-x="1013" d="M1018.311 812.089c0-81.689-66.222-147.911-147.911-147.911s-147.911 66.222-147.911 147.911c0 81.689 66.222 147.911 147.911 147.911s147.911-66.222 147.911-147.911zM295.822 453.689c0-81.689-66.222-147.911-147.911-147.911s-147.911 66.222-147.911 147.911c0 81.689 66.222 147.911 147.911 147.911s147.911-66.222 147.911-147.911zM1018.311 83.911c0-81.689-66.222-147.911-147.911-147.911s-147.911 66.222-147.911 147.911c0 81.689 66.222 147.911 147.911 147.911s147.911-66.222 147.911-147.911zM620.089 743.822l-267.378-130.844c17.067-28.444 28.444-51.2 39.822-79.644l267.378 130.844c-17.067 22.756-34.133 51.2-39.822 79.644zM392.533 368.356c-11.378-28.444-22.756-56.889-39.822-79.644l273.067-136.533c5.689 28.444 22.756 56.889 39.822 79.644l-273.067 136.533z" />
<glyph unicode="&#xe911;" glyph-name="comment" d="M1024-64l-49.152 155.648c28.672 49.152 47.104 104.448 47.104 165.888 0 174.080-141.312 317.44-315.392 317.44s-317.44-143.36-317.44-317.44 141.312-317.44 315.392-317.44c59.392 0 114.688 16.384 161.792 45.056l157.696-49.152zM704.512 667.136c61.44 0 120.832-14.336 174.080-38.912-51.2 190.464-225.28 331.776-432.128 331.776-245.76 0-446.464-200.704-446.464-448.512 0-86.016 24.576-167.936 67.584-235.52l-65.536-210.944 208.896 67.584c38.912-24.576 81.92-43.008 126.976-53.248-26.624 53.248-40.96 114.688-40.96 178.176-2.048 225.28 182.272 409.6 407.552 409.6z" />
<glyph unicode="&#xe912;" glyph-name="ico-share" d="M669.696 73.216c-47.104-26.624-100.352-43.008-157.696-43.008s-110.592 14.336-155.648 40.96c-18.432-26.624-40.96-51.2-67.584-69.632 65.536-43.008 141.312-67.584 225.28-67.584s159.744 24.576 225.28 67.584c-28.672 20.48-53.248 45.056-69.632 71.68zM700.416 652.8c65.536-49.152 112.64-120.832 131.072-206.848 12.288 2.048 26.624 4.096 38.912 4.096 20.48 0 40.96-4.096 59.392-8.192-20.48 124.928-90.112 231.424-186.368 296.96-8.192-30.72-24.576-61.44-43.008-86.016zM153.6 450.048c12.288 0 24.576-2.048 36.864-4.096 18.432 83.968 65.536 157.696 131.072 206.848-20.48 24.576-34.816 55.296-43.008 86.016-98.304-65.536-167.936-172.032-186.368-296.96 20.48 4.096 40.96 8.192 61.44 8.192zM307.2 206.336c0-87.093-68.769-157.696-153.6-157.696s-153.6 70.603-153.6 157.696c0 87.093 68.769 157.696 153.6 157.696s153.6-70.603 153.6-157.696zM665.6 802.304c0-87.093-68.769-157.696-153.6-157.696s-153.6 70.603-153.6 157.696c0 87.093 68.769 157.696 153.6 157.696s153.6-70.603 153.6-157.696zM1024 206.336c0-87.093-68.769-157.696-153.6-157.696s-153.6 70.603-153.6 157.696c0 87.093 68.769 157.696 153.6 157.696s153.6-70.603 153.6-157.696z" />
<glyph unicode="&#xe913;" glyph-name="ico-play" horiz-adv-x="1026" d="M335.872 448v217.088l217.088-108.544 219.136-108.544-219.136-108.544-217.088-108.544zM1026.048 755.2v204.8h-1026.048v-1024h1026.048v204.8h-2.048l2.048 614.4zM577.536 921.088h126.976v-126.976h-126.976v126.976zM929.792 755.2v-614.4h-835.584v614.4h835.584zM311.296 921.088h126.976v-126.976h-126.976v126.976zM45.056 921.088h129.024v-126.976h-129.024v126.976zM172.032-25.088h-126.976v129.024h129.024v-129.024zM438.272-25.088h-126.976v129.024h126.976v-129.024zM706.56-25.088h-126.976v129.024h126.976v-129.024zM972.8-25.088h-126.976v129.024h126.976v-129.024zM972.8 794.112h-126.976v126.976h126.976v-126.976z" />
<glyph unicode="&#xe914;" glyph-name="ico-zebatka" d="M604.16 448c0-50.899-41.261-92.16-92.16-92.16s-92.16 41.261-92.16 92.16c0 50.899 41.261 92.16 92.16 92.16s92.16-41.261 92.16-92.16zM1024 372.224v151.552h-81.92c-4.096 24.576-12.288 49.152-20.48 73.728l71.68 40.96-75.776 131.072-71.68-40.96c-16.384 18.432-34.816 36.864-53.248 53.248l43.008 73.728-131.072 75.776-43.008-73.728c-22.528 8.192-47.104 14.336-71.68 18.432v83.968h-151.552v-86.016c-24.576-4.096-49.152-10.24-71.68-18.432l-43.008 73.728-133.12-75.776 43.008-73.728c-18.432-16.384-36.864-34.816-53.248-53.248l-73.728 43.008-75.776-131.072 73.728-43.008c-8.192-22.528-16.384-47.104-20.48-73.728h-83.968v-151.552h81.92c4.096-24.576 10.24-51.2 18.432-73.728l-71.68-40.96 75.776-131.072 69.632 40.96c16.384-20.48 34.816-38.912 55.296-55.296l-40.96-69.632 131.072-75.776 38.912 69.632c24.576-8.192 49.152-16.384 75.776-20.48v-77.824h151.552v79.872c26.624 4.096 51.2 12.288 75.776 20.48l38.912-69.632 131.072 75.776-38.912 69.632c20.48 16.384 38.912 34.816 55.296 55.296l69.632-38.912 75.776 131.072-69.632 40.96c8.192 24.576 14.336 49.152 18.432 73.728h81.92zM512 118.272c-182.272 0-329.728 147.456-329.728 329.728s147.456 329.728 329.728 329.728 329.728-147.456 329.728-329.728c0-182.272-147.456-329.728-329.728-329.728z" />
<glyph unicode="" glyph-name="ico-zebatka" d="M604.16 448c0-50.899-41.261-92.16-92.16-92.16s-92.16 41.261-92.16 92.16c0 50.899 41.261 92.16 92.16 92.16s92.16-41.261 92.16-92.16zM1024 372.224v151.552h-81.92c-4.096 24.576-12.288 49.152-20.48 73.728l71.68 40.96-75.776 131.072-71.68-40.96c-16.384 18.432-34.816 36.864-53.248 53.248l43.008 73.728-131.072 75.776-43.008-73.728c-22.528 8.192-47.104 14.336-71.68 18.432v83.968h-151.552v-86.016c-24.576-4.096-49.152-10.24-71.68-18.432l-43.008 73.728-133.12-75.776 43.008-73.728c-18.432-16.384-36.864-34.816-53.248-53.248l-73.728 43.008-75.776-131.072 73.728-43.008c-8.192-22.528-16.384-47.104-20.48-73.728h-83.968v-151.552h81.92c4.096-24.576 10.24-51.2 18.432-73.728l-71.68-40.96 75.776-131.072 69.632 40.96c16.384-20.48 34.816-38.912 55.296-55.296l-40.96-69.632 131.072-75.776 38.912 69.632c24.576-8.192 49.152-16.384 75.776-20.48v-77.824h151.552v79.872c26.624 4.096 51.2 12.288 75.776 20.48l38.912-69.632 131.072 75.776-38.912 69.632c20.48 16.384 38.912 34.816 55.296 55.296l69.632-38.912 75.776 131.072-69.632 40.96c8.192 24.576 14.336 49.152 18.432 73.728h81.92zM512 118.272c-182.272 0-329.728 147.456-329.728 329.728s147.456 329.728 329.728 329.728 329.728-147.456 329.728-329.728c0-182.272-147.456-329.728-329.728-329.728z" />
<glyph unicode="delta" glyph-name="delta" d="M768 448l-256 512-512-1024h1024l-256 512zM512 29.091h-363.055l190.836 377.018 148.945 302.545 339.782-679.564h-316.509z" />
</font>
</defs>
</svg>
